<svg width="420" height="124" viewBox="0 0 420 124" fill="none" xmlns="http://www.w3.org/2000/svg">
  <rect width="420" height="124" rx="28" fill="#07111F"/>
  <rect x="14" y="14" width="96" height="96" rx="28" fill="url(#bg)"/>
  <path d="M43 81.5V42.5H72.5C82.7173 42.5 89.5 48.5108 89.5 57.5C89.5 65.0418 84.5624 70.2394 76.5572 71.7031L91 81.5H73.8566L61.6207 72.8594H56.3V81.5H43ZM56.3 61.4375H70.1712C73.8114 61.4375 76.25 59.5628 76.25 56.6406C76.25 53.7185 73.8114 51.875 70.1712 51.875H56.3V61.4375Z" fill="#07111F"/>
  <path d="M167.004 79V45.84H181.02L198.724 72.616V45.84H212.596V79H198.58L180.876 52.224V79H167.004Z" fill="#F6FBFF"/>
  <path d="M234.22 79L248.02 45.84H264.724L278.452 79H263.5L261.244 72.904H251.212L248.956 79H234.22ZM254.44 63.016H258.016L256.264 58.144C255.688 56.504 255.184 54.936 254.8 53.416H254.656C254.272 54.936 253.768 56.504 253.216 58.144L251.464 63.016H254.44Z" fill="#F6FBFF"/>
  <path d="M306.346 79.864C297.61 79.864 290.746 77.32 285.754 72.232C280.762 67.144 278.29 61.072 278.29 54.016C278.29 47.008 280.738 40.96 285.658 35.872C290.626 30.784 297.514 28.24 306.298 28.24C313.834 28.24 320.122 30.136 325.162 33.928L319.138 44.344C315.586 41.896 311.218 40.672 306.034 40.672C302.29 40.672 299.266 41.8 296.962 44.056C294.706 46.264 293.578 49.272 293.578 53.08C293.578 57.176 294.778 60.376 297.178 62.68C299.626 64.936 302.866 66.064 306.898 66.064C310.786 66.064 313.954 65.056 316.402 63.04V59.248H305.938V48.64H329.602V69.688C322.93 76.472 315.178 79.864 306.346 79.864Z" fill="#F6FBFF"/>
  <path d="M338.899 79V45.84H352.915V67.288H375.427V79H338.899Z" fill="#F6FBFF"/>
  <defs>
    <linearGradient id="bg" x1="18" y1="20" x2="95" y2="102" gradientUnits="userSpaceOnUse">
      <stop stop-color="#4DF0C8"/>
      <stop offset="1" stop-color="#16C6FF"/>
    </linearGradient>
  </defs>
</svg>
