<svg width="1600" height="1200" viewBox="0 0 1600 1200" fill="none" xmlns="http://www.w3.org/2000/svg">
  <defs>
    <linearGradient id="bg" x1="1460" y1="76" x2="158" y2="1054" gradientUnits="userSpaceOnUse">
      <stop stop-color="#E9F3FF"/>
      <stop offset="0.45" stop-color="#F7FBFF"/>
      <stop offset="1" stop-color="#F7E9FF"/>
    </linearGradient>
    <linearGradient id="blue" x1="1094" y1="189" x2="538" y2="931" gradientUnits="userSpaceOnUse">
      <stop stop-color="#1A73E8"/>
      <stop offset="1" stop-color="#6EA8FE"/>
    </linearGradient>
    <linearGradient id="violet" x1="964" y1="255" x2="343" y2="911" gradientUnits="userSpaceOnUse">
      <stop stop-color="#8C6BFF"/>
      <stop offset="1" stop-color="#F36BD6"/>
    </linearGradient>
    <filter id="shadow" x="0" y="0" width="1600" height="1200" filterUnits="userSpaceOnUse" color-interpolation-filters="sRGB">
      <feDropShadow dx="0" dy="34" stdDeviation="44" flood-color="#12305B" flood-opacity="0.12"/>
    </filter>
    <filter id="soft" x="0" y="0" width="1600" height="1200" filterUnits="userSpaceOnUse" color-interpolation-filters="sRGB">
      <feGaussianBlur stdDeviation="38"/>
    </filter>
  </defs>
  <rect width="1600" height="1200" rx="86" fill="url(#bg)"/>
  <g filter="url(#soft)" opacity="0.55">
    <circle cx="413" cy="360" r="164" fill="#F36BD6"/>
    <circle cx="1054" cy="294" r="196" fill="#69A8FF"/>
    <circle cx="843" cy="817" r="198" fill="#806BFF"/>
  </g>
  <g filter="url(#shadow)">
    <rect x="386" y="226" width="828" height="656" rx="52" fill="white" fill-opacity="0.92"/>
    <rect x="418" y="266" width="764" height="96" rx="28" fill="#F3F7FC"/>
    <circle cx="474" cy="314" r="18" fill="#1A73E8"/>
    <circle cx="532" cy="314" r="18" fill="#8C6BFF"/>
    <circle cx="590" cy="314" r="18" fill="#F36BD6"/>
    <rect x="472" y="420" width="280" height="270" rx="34" fill="#F8FBFF" stroke="#DFE8F5" stroke-width="2"/>
    <rect x="808" y="420" width="280" height="270" rx="34" fill="#F8FBFF" stroke="#DFE8F5" stroke-width="2"/>
    <rect x="472" y="732" width="616" height="86" rx="28" fill="#F2F7FF" stroke="#DFE8F5" stroke-width="2"/>
    <path d="M582 571c42-93 93-141 151-145 69-4 116 52 98 109-14 44-67 45-78 93-12 54 42 70 22 126-22 60-111 79-166 42-59-40-67-136-27-225Z" fill="url(#violet)" opacity="0.92"/>
    <path d="M918 520c38-88 126-93 171-39 46 55 13 132-57 131-53-1-74 31-77 78-3 55-61 86-111 56-57-34-59-142 74-226Z" fill="url(#blue)" opacity="0.92"/>
    <rect x="538" y="752" width="212" height="24" rx="12" fill="#CBD7EA"/>
    <rect x="538" y="786" width="348" height="22" rx="11" fill="#E0E8F4"/>
    <rect x="834" y="752" width="204" height="46" rx="23" fill="#1A73E8"/>
  </g>
  <g filter="url(#shadow)">
    <rect x="207" y="506" width="268" height="184" rx="36" fill="white" fill-opacity="0.96"/>
    <rect x="251" y="552" width="110" height="22" rx="11" fill="#CBD7EA"/>
    <rect x="251" y="594" width="174" height="18" rx="9" fill="#E4EBF6"/>
    <rect x="251" y="631" width="138" height="34" rx="17" fill="#EAF2FF"/>
  </g>
  <g filter="url(#shadow)">
    <rect x="1116" y="612" width="274" height="206" rx="36" fill="white" fill-opacity="0.96"/>
    <path d="M1181 720h142" stroke="#1A73E8" stroke-width="24" stroke-linecap="round"/>
    <path d="M1181 664h74" stroke="#F36BD6" stroke-width="24" stroke-linecap="round"/>
    <path d="M1181 775h104" stroke="#A7B5CE" stroke-width="20" stroke-linecap="round"/>
  </g>
  <g opacity="0.88">
    <circle cx="279" cy="264" r="16" fill="#1A73E8"/>
    <circle cx="1292" cy="331" r="18" fill="#8C6BFF"/>
    <circle cx="1340" cy="893" r="12" fill="#F36BD6"/>
    <circle cx="274" cy="882" r="13" fill="#69A8FF"/>
  </g>
</svg>
